<svg xmlns="http://www.w3.org/2000/svg" width="64" height="64" viewBox="0 0 64 64">
  <rect width="64" height="64" rx="16" fill="#2e7d32"/>
  <g transform="translate(9.33 9.33) scale(1.86)">
    <path d="M20 4 C 8.8 4 3.8 9.6 3.8 19.4 C 3.8 20 4.3 20.4 4.9 20.1 C 13.4 15.9 18.8 11 20.2 4.6 C 20.3 4.2 20 4 20 4 Z" fill="#ffffff"/>
    <path d="M6 18.4 C 10 13.8 14 9.4 18 5.6" stroke="#2e7d32" stroke-width="1.3" fill="none" stroke-linecap="round"/>
    <path d="M8.4 12 L 9.6 14.3 L 12 15.3" stroke="#2e7d32" stroke-width="1" fill="none" stroke-linecap="round" stroke-linejoin="round"/>
    <path d="M11.6 9.1 L 12.6 11.1 L 14.6 11.9" stroke="#2e7d32" stroke-width="1" fill="none" stroke-linecap="round" stroke-linejoin="round"/>
    <path d="M14.6 6.7 L 15.4 8.2 L 16.9 8.9" stroke="#2e7d32" stroke-width="1" fill="none" stroke-linecap="round" stroke-linejoin="round"/>
  </g>
</svg>
