<svg xmlns="http://www.w3.org/2000/svg" width="64" height="64" viewBox="0 0 64 64">
  <rect width="64" height="64" rx="16" fill="#2e7d32"/>
  <g transform="translate(9.33 9.33) scale(1.86)">
    <path d="M20 4 C 8.8 4 3.8 9.6 3.8 19.4 C 3.8 20 4.3 20.4 4.9 20.1 C 13.4 15.9 18.8 11 20.2 4.6 C 20.3 4.2 20 4 20 4 Z" fill="#ffffff"/>
    <path d="M6.4 18.6 C 10 12.4 14.8 7.9 19 5.1" stroke="#2e7d32" stroke-width="1.5" fill="none" stroke-linecap="round"/>
    <path d="M8.3 16.9 C 9.1 15.6 9.4 14.5 9.5 13.1" stroke="#2e7d32" stroke-width="1.1" fill="none" stroke-linecap="round"/>
    <path d="M10.6 14.6 C 11.6 13.2 12.1 11.9 12.3 10.2" stroke="#2e7d32" stroke-width="1.1" fill="none" stroke-linecap="round"/>
    <path d="M13 12.2 C 14.1 11 14.8 9.9 15.3 8.6" stroke="#2e7d32" stroke-width="1.1" fill="none" stroke-linecap="round"/>
  </g>
</svg>
